<?xml version="1.0" standalone="no"?>
<!DOCTYPE svg PUBLIC "-//W3C//DTD SVG 20010904//EN"
 "http://www.w3.org/TR/2001/REC-SVG-20010904/DTD/svg10.dtd">
<svg version="1.0" xmlns="http://www.w3.org/2000/svg"
 width="100.000000pt" height="100.000000pt" viewBox="0 0 100.000000 100.000000"
 preserveAspectRatio="xMidYMid meet">

<g transform="translate(0.000000,100.000000) scale(0.100000,-0.100000)"
fill="#000000" stroke="none">
<path d="M421 913 c-11 -10 -26 -36 -33 -57 -11 -32 -24 -46 -70 -73 -58 -34
-98 -75 -98 -100 0 -11 14 -13 63 -11 l62 3 3 -48 c3 -42 7 -51 33 -65 47 -27
36 -55 -25 -65 -43 -7 -104 -51 -123 -88 -33 -67 -107 -315 -99 -335 5 -12 62
-14 348 -12 l343 3 -3 31 c-2 17 -25 98 -52 180 -43 131 -53 153 -86 181 -20
18 -53 35 -73 39 -73 12 -80 29 -31 71 24 20 30 33 30 64 l0 39 50 0 c43 0 50
3 50 19 0 24 -45 62 -109 93 -54 25 -68 51 -46 85 32 47 16 63 -65 63 -31 0
-55 -6 -69 -17z m103 -229 c46 -7 46 -7 46 -46 0 -37 -3 -40 -46 -59 l-45 -21
-47 24 c-44 21 -47 26 -50 66 l-3 42 49 0 c27 0 70 -3 96 -6z m-9 -173 c6 -16
-19 -41 -41 -41 -17 0 -37 28 -31 43 7 19 65 17 72 -2z"/>
<path d="M763 659 c-31 -14 -44 -27 -48 -47 -6 -28 -17 -64 -30 -94 -5 -13 -2
-18 9 -18 9 0 16 7 16 15 0 20 13 19 33 -3 21 -23 21 -32 2 -32 -8 0 -15 -4
-15 -10 0 -5 9 -10 19 -10 11 0 23 5 26 10 3 6 18 10 33 10 33 0 72 25 72 46
0 8 7 26 16 39 9 13 12 29 8 36 -4 8 -11 -1 -18 -22 -14 -44 -52 -51 -89 -17
-57 51 -37 102 37 96 27 -2 41 -8 41 -17 0 -8 7 -17 15 -19 12 -4 12 -1 -1 19
-9 13 -21 24 -27 24 -6 0 -14 3 -18 8 -12 12 -36 8 -81 -14z m42 -129 c29 -14
29 -15 7 -18 -38 -6 -87 52 -75 86 3 7 12 -1 22 -20 9 -18 30 -40 46 -48z"/>
</g>
</svg>
